M48
METRIC,LZ,000.000
;FILE_FORMAT=3:3
;TYPE=PLATED
;Layer: PTH_Through
;EasyEDA v6.5.23, 2023-05-13 18:40:17
;7dd84fb06793420390170bfe7a1cbe73,3fa23a13d3e040a79c425d4cbe1ed77c,10
;Gerber Generator version 0.2
;Holesize 1 = 0.701 mm
T01C0.701
;Holesize 2 = 0.800 mm
T02C0.800
;Holesize 3 = 0.901 mm
T03C0.901
;Holesize 4 = 1.000 mm
T04C1.000
;Holesize 5 = 1.101 mm
T05C1.101
;Holesize 6 = 1.301 mm
T06C1.301
%
G05
G90
T01
X032766Y026924
X032766Y028194
X032766Y029464
T02
X016002Y010779
X016002Y008779
T03
X023114Y008636
X028194Y008636
X016129Y029591
X016129Y024511
X016002Y033080
X016002Y040580
X040513Y025460
X040513Y032960
X044577Y025714
X044577Y033214
X026797Y031817
X026797Y024317
X034036Y011363
X034036Y018863
X016129Y021276
X016129Y013776
X021971Y021463
X021971Y018923
X021971Y016383
X021971Y013843
X029591Y021463
X029591Y018923
X029591Y016383
X029591Y013843
T04
X026924Y042545
X024384Y042545
X021844Y042545
X026924Y034925
X024384Y034925
X021844Y034925
T05
X043398Y042747
X043398Y036247
X038898Y042747
X038898Y036247
X040168Y013768
X040168Y020268
X044668Y013768
X044668Y020268
T06
X008890Y032931
X008890Y037935
X008890Y016294
X008890Y021298
M30
