G04 Layer: TopSilkscreenLayer*
G04 EasyEDA v6.5.23, 2023-05-13 18:40:17*
G04 7dd84fb06793420390170bfe7a1cbe73,3fa23a13d3e040a79c425d4cbe1ed77c,10*
G04 Gerber Generator version 0.2*
G04 Scale: 100 percent, Rotated: No, Reflected: No *
G04 Dimensions in millimeters *
G04 leading zeros omitted , absolute positions ,4 integer and 5 decimal *
%FSLAX45Y45*%
%MOMM*%

%ADD10C,0.1524*%
%ADD11C,0.2540*%
%ADD12C,0.2000*%
%ADD13C,0.2500*%
%ADD14C,0.6000*%
%ADD15C,0.3000*%
%ADD16C,0.0191*%

%LPD*%
D10*
X2617977Y1156207D02*
G01*
X2612643Y1166621D01*
X2602229Y1177035D01*
X2592070Y1182115D01*
X2571241Y1182115D01*
X2560827Y1177035D01*
X2550413Y1166621D01*
X2545079Y1156207D01*
X2540000Y1140459D01*
X2540000Y1114551D01*
X2545079Y1099057D01*
X2550413Y1088643D01*
X2560827Y1078229D01*
X2571241Y1073150D01*
X2592070Y1073150D01*
X2602229Y1078229D01*
X2612643Y1088643D01*
X2617977Y1099057D01*
X2652268Y1161287D02*
G01*
X2662681Y1166621D01*
X2678175Y1182115D01*
X2678175Y1073150D01*
X1905507Y2652521D02*
G01*
X1915921Y2657855D01*
X1926336Y2668269D01*
X1931415Y2678429D01*
X1931415Y2699257D01*
X1926336Y2709671D01*
X1915921Y2720085D01*
X1905507Y2725419D01*
X1889759Y2730500D01*
X1863852Y2730500D01*
X1848357Y2725419D01*
X1837943Y2720085D01*
X1827529Y2709671D01*
X1822450Y2699257D01*
X1822450Y2678429D01*
X1827529Y2668269D01*
X1837943Y2657855D01*
X1848357Y2652521D01*
X1931415Y2607818D02*
G01*
X1931415Y2550668D01*
X1889759Y2581909D01*
X1889759Y2566415D01*
X1884679Y2556001D01*
X1879600Y2550668D01*
X1863852Y2545587D01*
X1853438Y2545587D01*
X1837943Y2550668D01*
X1827529Y2561081D01*
X1822450Y2576829D01*
X1822450Y2592323D01*
X1827529Y2607818D01*
X1832609Y2613151D01*
X1843023Y2618231D01*
X1969007Y922121D02*
G01*
X1979421Y927455D01*
X1989836Y937869D01*
X1994915Y948029D01*
X1994915Y968857D01*
X1989836Y979271D01*
X1979421Y989685D01*
X1969007Y995019D01*
X1953259Y1000099D01*
X1927352Y1000099D01*
X1911857Y995019D01*
X1901443Y989685D01*
X1891029Y979271D01*
X1885950Y968857D01*
X1885950Y948029D01*
X1891029Y937869D01*
X1901443Y927455D01*
X1911857Y922121D01*
X1969007Y882751D02*
G01*
X1974088Y882751D01*
X1984502Y877417D01*
X1989836Y872337D01*
X1994915Y861923D01*
X1994915Y841095D01*
X1989836Y830681D01*
X1984502Y825601D01*
X1974088Y820267D01*
X1963673Y820267D01*
X1953259Y825601D01*
X1937765Y836015D01*
X1885950Y887831D01*
X1885950Y815187D01*
X316483Y3573779D02*
G01*
X399542Y3573779D01*
X415289Y3568445D01*
X420369Y3563365D01*
X425450Y3552951D01*
X425450Y3542537D01*
X420369Y3532123D01*
X415289Y3526789D01*
X399542Y3521709D01*
X389127Y3521709D01*
X316483Y3608069D02*
G01*
X425450Y3608069D01*
X316483Y3608069D02*
G01*
X316483Y3654805D01*
X321563Y3670300D01*
X326897Y3675379D01*
X337311Y3680713D01*
X352805Y3680713D01*
X363219Y3675379D01*
X368300Y3670300D01*
X373633Y3654805D01*
X373633Y3608069D01*
X337311Y3715003D02*
G01*
X331977Y3725418D01*
X316483Y3740911D01*
X425450Y3740911D01*
X316483Y1910079D02*
G01*
X399542Y1910079D01*
X415289Y1904745D01*
X420369Y1899665D01*
X425450Y1889251D01*
X425450Y1878837D01*
X420369Y1868423D01*
X415289Y1863089D01*
X399542Y1858009D01*
X389127Y1858009D01*
X316483Y1944369D02*
G01*
X425450Y1944369D01*
X316483Y1944369D02*
G01*
X316483Y1991105D01*
X321563Y2006600D01*
X326897Y2011679D01*
X337311Y2017013D01*
X352805Y2017013D01*
X363219Y2011679D01*
X368300Y2006600D01*
X373633Y1991105D01*
X373633Y1944369D01*
X342392Y2056384D02*
G01*
X337311Y2056384D01*
X326897Y2061718D01*
X321563Y2066797D01*
X316483Y2077211D01*
X316483Y2098039D01*
X321563Y2108453D01*
X326897Y2113534D01*
X337311Y2118868D01*
X347725Y2118868D01*
X358139Y2113534D01*
X373633Y2103119D01*
X425450Y2051303D01*
X425450Y2123947D01*
X3709415Y2813557D02*
G01*
X3704336Y2823971D01*
X3693921Y2834385D01*
X3683507Y2839719D01*
X3667759Y2844800D01*
X3641852Y2844800D01*
X3626357Y2839719D01*
X3615943Y2834385D01*
X3605529Y2823971D01*
X3600450Y2813557D01*
X3600450Y2792729D01*
X3605529Y2782569D01*
X3615943Y2772155D01*
X3626357Y2766821D01*
X3641852Y2761742D01*
X3667759Y2761742D01*
X3683507Y2766821D01*
X3693921Y2772155D01*
X3704336Y2782569D01*
X3709415Y2792729D01*
X3709415Y2813557D01*
X3621023Y2798063D02*
G01*
X3590036Y2766821D01*
X3688588Y2727451D02*
G01*
X3693921Y2717037D01*
X3709415Y2701289D01*
X3600450Y2701289D01*
X1357884Y3683000D02*
G01*
X1466850Y3683000D01*
X1357884Y3683000D02*
G01*
X1357884Y3729735D01*
X1362963Y3745229D01*
X1368297Y3750563D01*
X1378711Y3755643D01*
X1389125Y3755643D01*
X1399539Y3750563D01*
X1404620Y3745229D01*
X1409700Y3729735D01*
X1409700Y3683000D01*
X1409700Y3719321D02*
G01*
X1466850Y3755643D01*
X1378711Y3789934D02*
G01*
X1373377Y3800347D01*
X1357884Y3816095D01*
X1466850Y3816095D01*
X3808984Y2921000D02*
G01*
X3917950Y2921000D01*
X3808984Y2921000D02*
G01*
X3808984Y2967735D01*
X3814063Y2983229D01*
X3819397Y2988563D01*
X3829811Y2993643D01*
X3840225Y2993643D01*
X3850639Y2988563D01*
X3855720Y2983229D01*
X3860800Y2967735D01*
X3860800Y2921000D01*
X3860800Y2957321D02*
G01*
X3917950Y2993643D01*
X3834891Y3033268D02*
G01*
X3829811Y3033268D01*
X3819397Y3038347D01*
X3814063Y3043681D01*
X3808984Y3054095D01*
X3808984Y3074669D01*
X3814063Y3085084D01*
X3819397Y3090418D01*
X3829811Y3095497D01*
X3840225Y3095497D01*
X3850639Y3090418D01*
X3866134Y3080003D01*
X3917950Y3027934D01*
X3917950Y3100831D01*
X4215384Y2946400D02*
G01*
X4324350Y2946400D01*
X4215384Y2946400D02*
G01*
X4215384Y2993135D01*
X4220463Y3008629D01*
X4225797Y3013963D01*
X4236211Y3019043D01*
X4246625Y3019043D01*
X4257039Y3013963D01*
X4262120Y3008629D01*
X4267200Y2993135D01*
X4267200Y2946400D01*
X4267200Y2982721D02*
G01*
X4324350Y3019043D01*
X4215384Y3063747D02*
G01*
X4215384Y3120897D01*
X4257039Y3089909D01*
X4257039Y3105403D01*
X4262120Y3115818D01*
X4267200Y3120897D01*
X4282947Y3126231D01*
X4293361Y3126231D01*
X4308855Y3120897D01*
X4319270Y3110484D01*
X4324350Y3094989D01*
X4324350Y3079495D01*
X4319270Y3063747D01*
X4314189Y3058668D01*
X4303775Y3053334D01*
X2922015Y2806700D02*
G01*
X2813050Y2806700D01*
X2922015Y2806700D02*
G01*
X2922015Y2759963D01*
X2916936Y2744469D01*
X2911602Y2739135D01*
X2901188Y2734055D01*
X2890773Y2734055D01*
X2880359Y2739135D01*
X2875279Y2744469D01*
X2870200Y2759963D01*
X2870200Y2806700D01*
X2870200Y2770377D02*
G01*
X2813050Y2734055D01*
X2922015Y2647695D02*
G01*
X2849371Y2699765D01*
X2849371Y2621787D01*
X2922015Y2647695D02*
G01*
X2813050Y2647695D01*
X3161284Y1511300D02*
G01*
X3270250Y1511300D01*
X3161284Y1511300D02*
G01*
X3161284Y1558035D01*
X3166363Y1573529D01*
X3171697Y1578863D01*
X3182111Y1583943D01*
X3192525Y1583943D01*
X3202939Y1578863D01*
X3208020Y1573529D01*
X3213100Y1558035D01*
X3213100Y1511300D01*
X3213100Y1547621D02*
G01*
X3270250Y1583943D01*
X3161284Y1680718D02*
G01*
X3161284Y1628647D01*
X3208020Y1623568D01*
X3202939Y1628647D01*
X3197605Y1644395D01*
X3197605Y1659889D01*
X3202939Y1675384D01*
X3213100Y1685797D01*
X3228847Y1691131D01*
X3239261Y1691131D01*
X3254755Y1685797D01*
X3265170Y1675384D01*
X3270250Y1659889D01*
X3270250Y1644395D01*
X3265170Y1628647D01*
X3260089Y1623568D01*
X3249675Y1618234D01*
X1855215Y1752600D02*
G01*
X1746250Y1752600D01*
X1855215Y1752600D02*
G01*
X1855215Y1705863D01*
X1850136Y1690369D01*
X1844802Y1685035D01*
X1834388Y1679955D01*
X1823973Y1679955D01*
X1813559Y1685035D01*
X1808479Y1690369D01*
X1803400Y1705863D01*
X1803400Y1752600D01*
X1803400Y1716277D02*
G01*
X1746250Y1679955D01*
X1839721Y1583181D02*
G01*
X1850136Y1588515D01*
X1855215Y1604009D01*
X1855215Y1614423D01*
X1850136Y1629918D01*
X1834388Y1640331D01*
X1808479Y1645665D01*
X1782571Y1645665D01*
X1761743Y1640331D01*
X1751329Y1629918D01*
X1746250Y1614423D01*
X1746250Y1609089D01*
X1751329Y1593595D01*
X1761743Y1583181D01*
X1777238Y1578101D01*
X1782571Y1578101D01*
X1798065Y1583181D01*
X1808479Y1593595D01*
X1813559Y1609089D01*
X1813559Y1614423D01*
X1808479Y1629918D01*
X1798065Y1640331D01*
X1782571Y1645665D01*
X4570221Y3902455D02*
G01*
X4580636Y3912869D01*
X4585715Y3928363D01*
X4585715Y3949192D01*
X4580636Y3964685D01*
X4570221Y3975100D01*
X4559807Y3975100D01*
X4549393Y3970019D01*
X4544059Y3964685D01*
X4538979Y3954271D01*
X4528565Y3923029D01*
X4523486Y3912869D01*
X4518152Y3907535D01*
X4507738Y3902455D01*
X4492243Y3902455D01*
X4481829Y3912869D01*
X4476750Y3928363D01*
X4476750Y3949192D01*
X4481829Y3964685D01*
X4492243Y3975100D01*
X4585715Y3868165D02*
G01*
X4476750Y3842003D01*
X4585715Y3816095D02*
G01*
X4476750Y3842003D01*
X4585715Y3816095D02*
G01*
X4476750Y3790187D01*
X4585715Y3764279D02*
G01*
X4476750Y3790187D01*
X4564888Y3729989D02*
G01*
X4570221Y3719576D01*
X4585715Y3703827D01*
X4476750Y3703827D01*
X3786377Y1749043D02*
G01*
X3775963Y1738629D01*
X3770884Y1723135D01*
X3770884Y1702307D01*
X3775963Y1686813D01*
X3786377Y1676400D01*
X3796791Y1676400D01*
X3807205Y1681479D01*
X3812539Y1686813D01*
X3817620Y1697227D01*
X3828034Y1728469D01*
X3833113Y1738629D01*
X3838447Y1743963D01*
X3848861Y1749043D01*
X3864355Y1749043D01*
X3874770Y1738629D01*
X3879850Y1723135D01*
X3879850Y1702307D01*
X3874770Y1686813D01*
X3864355Y1676400D01*
X3770884Y1783334D02*
G01*
X3879850Y1809495D01*
X3770884Y1835403D02*
G01*
X3879850Y1809495D01*
X3770884Y1835403D02*
G01*
X3879850Y1861311D01*
X3770884Y1887219D02*
G01*
X3879850Y1861311D01*
X3796791Y1926843D02*
G01*
X3791711Y1926843D01*
X3781297Y1931923D01*
X3775963Y1937257D01*
X3770884Y1947671D01*
X3770884Y1968500D01*
X3775963Y1978659D01*
X3781297Y1983993D01*
X3791711Y1989073D01*
X3802125Y1989073D01*
X3812539Y1983993D01*
X3828034Y1973579D01*
X3879850Y1921509D01*
X3879850Y1994407D01*
X3201415Y1803400D02*
G01*
X3123438Y1803400D01*
X3107943Y1798319D01*
X3097529Y1787905D01*
X3092450Y1772157D01*
X3092450Y1761743D01*
X3097529Y1746250D01*
X3107943Y1735835D01*
X3123438Y1730755D01*
X3201415Y1730755D01*
X3180588Y1696465D02*
G01*
X3185921Y1686051D01*
X3201415Y1670303D01*
X3092450Y1670303D01*
X2463800Y3262884D02*
G01*
X2463800Y3340861D01*
X2458720Y3356355D01*
X2448305Y3366769D01*
X2432557Y3371850D01*
X2422143Y3371850D01*
X2406650Y3366769D01*
X2396236Y3356355D01*
X2391155Y3340861D01*
X2391155Y3262884D01*
X2351531Y3288792D02*
G01*
X2351531Y3283711D01*
X2346452Y3273297D01*
X2341118Y3267963D01*
X2330704Y3262884D01*
X2310129Y3262884D01*
X2299715Y3267963D01*
X2294381Y3273297D01*
X2289302Y3283711D01*
X2289302Y3294126D01*
X2294381Y3304539D01*
X2304795Y3320034D01*
X2356865Y3371850D01*
X2283968Y3371850D01*
G36*
X1435100Y798474D02*
G01*
X1444853Y788924D01*
X1455115Y779932D01*
X1465935Y771550D01*
X1477213Y763828D01*
X1488948Y756818D01*
X1501089Y750519D01*
X1513586Y744982D01*
X1526387Y740156D01*
X1539443Y736142D01*
X1552702Y732891D01*
X1566164Y730453D01*
X1579727Y728827D01*
X1593342Y728014D01*
X1607058Y728014D01*
X1620672Y728827D01*
X1634236Y730453D01*
X1647698Y732891D01*
X1660956Y736142D01*
X1674012Y740156D01*
X1686814Y744982D01*
X1699310Y750519D01*
X1711452Y756818D01*
X1723186Y763828D01*
X1734464Y771550D01*
X1745284Y779932D01*
X1755546Y788924D01*
X1765300Y798474D01*
G37*
D11*
X2325403Y1023602D02*
G01*
X2805399Y1023602D01*
X2805396Y703597D02*
G01*
X2325400Y703597D01*
X2325400Y703597D02*
G01*
X2325400Y751357D01*
X2325400Y975842D02*
G01*
X2325400Y1023602D01*
X2805399Y1023602D02*
G01*
X2805399Y975842D01*
X2805399Y751357D02*
G01*
X2805399Y703597D01*
X1772902Y2945096D02*
G01*
X1772902Y2465100D01*
X1452897Y2465103D02*
G01*
X1452897Y2945099D01*
X1452897Y2945099D02*
G01*
X1500657Y2945099D01*
X1725142Y2945099D02*
G01*
X1772902Y2945099D01*
X1772902Y2465100D02*
G01*
X1725142Y2465100D01*
X1500657Y2465100D02*
G01*
X1452897Y2465100D01*
X1750186Y1129512D02*
G01*
X1750186Y1027912D01*
X1800199Y1077899D02*
G01*
X1698599Y1077899D01*
X469900Y2983229D02*
G01*
X469900Y4103369D01*
X469900Y4103369D02*
G01*
X1120139Y4103369D01*
X1120139Y4103369D02*
G01*
X1219200Y4103369D01*
X1219200Y4103369D02*
G01*
X1219200Y2983229D01*
X1219200Y2983229D02*
G01*
X1120139Y2983229D01*
X1120139Y2983229D02*
G01*
X469900Y2983229D01*
X1120139Y4103369D02*
G01*
X1120139Y2983229D01*
X469900Y1319529D02*
G01*
X469900Y2439669D01*
X469900Y2439669D02*
G01*
X1120139Y2439669D01*
X1120139Y2439669D02*
G01*
X1219200Y2439669D01*
X1219200Y2439669D02*
G01*
X1219200Y1319529D01*
X1219200Y1319529D02*
G01*
X1120139Y1319529D01*
X1120139Y1319529D02*
G01*
X469900Y1319529D01*
X1120139Y2439669D02*
G01*
X1120139Y1319529D01*
X3126613Y2621409D02*
G01*
X3126613Y3017390D01*
X1600194Y3858000D02*
G01*
X1600194Y3958686D01*
X1601137Y3507999D02*
G01*
X1601137Y3403600D01*
X1505198Y3507999D02*
G01*
X1505198Y3858000D01*
X1695201Y3858000D02*
G01*
X1505198Y3858000D01*
X1695201Y3507999D02*
G01*
X1505198Y3507999D01*
X1695201Y3507999D02*
G01*
X1695201Y3858000D01*
X4051294Y3096000D02*
G01*
X4051294Y3196686D01*
X4052237Y2745999D02*
G01*
X4052237Y2641600D01*
X3956298Y2745999D02*
G01*
X3956298Y3096000D01*
X4146301Y3096000D02*
G01*
X3956298Y3096000D01*
X4146301Y2745999D02*
G01*
X3956298Y2745999D01*
X4146301Y2745999D02*
G01*
X4146301Y3096000D01*
X4457694Y3121400D02*
G01*
X4457694Y3222086D01*
X4458637Y2771399D02*
G01*
X4458637Y2667000D01*
X4362698Y2771399D02*
G01*
X4362698Y3121400D01*
X4552701Y3121400D02*
G01*
X4362698Y3121400D01*
X4552701Y2771399D02*
G01*
X4362698Y2771399D01*
X4552701Y2771399D02*
G01*
X4552701Y3121400D01*
X2679705Y2631699D02*
G01*
X2679705Y2531013D01*
X2678762Y2981700D02*
G01*
X2678762Y3086100D01*
X2774701Y2981700D02*
G01*
X2774701Y2631699D01*
X2584698Y2631699D02*
G01*
X2774701Y2631699D01*
X2584698Y2981700D02*
G01*
X2774701Y2981700D01*
X2584698Y2981700D02*
G01*
X2584698Y2631699D01*
X3403594Y1686300D02*
G01*
X3403594Y1786986D01*
X3404537Y1336299D02*
G01*
X3404537Y1231900D01*
X3308598Y1336299D02*
G01*
X3308598Y1686300D01*
X3498601Y1686300D02*
G01*
X3308598Y1686300D01*
X3498601Y1336299D02*
G01*
X3308598Y1336299D01*
X3498601Y1336299D02*
G01*
X3498601Y1686300D01*
X1612905Y1577599D02*
G01*
X1612905Y1476913D01*
X1611962Y1927600D02*
G01*
X1611962Y2032000D01*
X1707901Y1927600D02*
G01*
X1707901Y1577599D01*
X1517898Y1577599D02*
G01*
X1707901Y1577599D01*
X1517898Y1927600D02*
G01*
X1707901Y1927600D01*
X1517898Y1927600D02*
G01*
X1517898Y1577599D01*
X3804157Y3703065D02*
G01*
X3804920Y4196334D01*
X4423859Y4211319D02*
G01*
X4423859Y3706644D01*
X4424679Y3716053D01*
X4024995Y4249199D02*
G01*
X4204604Y4249199D01*
X4204604Y3650200D02*
G01*
X4024995Y3650200D01*
X4552441Y1948434D02*
G01*
X4551679Y1455165D01*
X3932740Y1440179D02*
G01*
X3932740Y1944855D01*
X3931920Y1935446D01*
X4331604Y1402300D02*
G01*
X4151995Y1402300D01*
X4151995Y2001299D02*
G01*
X4331604Y2001299D01*
D12*
X2642100Y2259299D02*
G01*
X2641600Y2259329D01*
X2843021Y2259329D01*
X2843021Y1269237D01*
X2313177Y1269237D01*
X2313177Y2259329D01*
X2514600Y2259329D01*
X2514099Y2259299D01*
X2890773Y3810000D02*
G01*
X2890773Y3608577D01*
X1988311Y3608577D01*
X1988311Y4138421D01*
X2890773Y4138421D01*
X2890773Y3937000D01*
D11*
G75*
G01*
X3126486Y2621280D02*
G03*
X3126486Y3017520I149840J198120D01*
D12*
G75*
G01*
X2514100Y2259300D02*
G03*
X2641100Y2259300I63500J0D01*
D13*
G75*
G01*
X2197100Y2288794D02*
G03*
X2197354Y2288794I127J-12499D01*
D14*
G75*
G01*
X2413000Y2210308D02*
G03*
X2413508Y2210308I254J-29999D01*
D12*
G75*
G01*
X2890774Y3937000D02*
G03*
X2890774Y3810000I0J-63500D01*
D14*
G75*
G01*
X2818384Y4043426D02*
G03*
X2818384Y4042918I-29999J-254D01*
D15*
G75*
G01*
X2835402Y4253484D02*
G03*
X2835402Y4253230I-15001J-127D01*
G75*
G01
X1850212Y977900D02*
G03X1850212Y977900I-250012J0D01*
D11*
G75*
G01
X4241800Y3949700D02*
G03X4241800Y3949700I-127000J0D01*
G75*
G01
X4363796Y4114800D02*
G03X4363796Y4114800I-45796J0D01*
G75*
G01
X4363796Y3784600D02*
G03X4363796Y3784600I-45796J0D01*
G75*
G01
X3957396Y3784600D02*
G03X3957396Y3784600I-45796J0D01*
G75*
G01
X3957396Y4114800D02*
G03X3957396Y4114800I-45796J0D01*
G75*
G01
X4368800Y1701800D02*
G03X4368800Y1701800I-127000J0D01*
G75*
G01
X4084396Y1536700D02*
G03X4084396Y1536700I-45796J0D01*
G75*
G01
X4084396Y1866900D02*
G03X4084396Y1866900I-45796J0D01*
G75*
G01
X4490796Y1866900D02*
G03X4490796Y1866900I-45796J0D01*
G75*
G01
X4490796Y1536700D02*
G03X4490796Y1536700I-45796J0D01*
M02*
