G04 Layer: BottomLayer*
G04 EasyEDA v6.5.23, 2023-05-13 18:40:17*
G04 7dd84fb06793420390170bfe7a1cbe73,3fa23a13d3e040a79c425d4cbe1ed77c,10*
G04 Gerber Generator version 0.2*
G04 Scale: 100 percent, Rotated: No, Reflected: No *
G04 Dimensions in millimeters *
G04 leading zeros omitted , absolute positions ,4 integer and 5 decimal *
%FSLAX45Y45*%
%MOMM*%

%ADD10C,0.9000*%
%ADD11C,2.0000*%
%ADD12C,1.8000*%
%ADD13C,1.3000*%
%ADD14R,2.0320X2.0320*%
%ADD15C,2.0320*%
%ADD16O,1.5999968X0.8999982*%
%ADD17R,1.6000X0.9000*%
%ADD18C,1.5240*%
%ADD19R,1.5000X1.5000*%
%ADD20C,1.5000*%
%ADD21R,1.8000X1.8000*%
%ADD22R,0.0186X1.8000*%

%LPD*%
G36*
X753465Y3695700D02*
G01*
X749604Y3696462D01*
X746302Y3698646D01*
X688746Y3756202D01*
X686562Y3759504D01*
X685800Y3763416D01*
X685800Y4072483D01*
X686562Y4076344D01*
X688746Y4079646D01*
X1241602Y4632502D01*
X1244904Y4634687D01*
X1248765Y4635500D01*
X2085339Y4635500D01*
X2089200Y4634687D01*
X2092502Y4632502D01*
X2094738Y4629200D01*
X2095550Y4625340D01*
X2095550Y4550816D01*
X2094738Y4546904D01*
X2092502Y4543602D01*
X1615897Y4066946D01*
X1612595Y4064762D01*
X1608734Y4064000D01*
X1169365Y4064000D01*
X1167688Y4063288D01*
X1145946Y4041546D01*
X1142644Y4039362D01*
X1138783Y4038600D01*
X1131265Y4038600D01*
X1129588Y4037888D01*
X889660Y3798011D01*
X889000Y3796284D01*
X889000Y3705860D01*
X888187Y3701948D01*
X886002Y3698646D01*
X882700Y3696462D01*
X878840Y3695700D01*
G37*

%LPD*%
G36*
X1148486Y404114D02*
G01*
X1145133Y405028D01*
X1142288Y407060D01*
X409194Y1140155D01*
X407060Y1143304D01*
X406247Y1147013D01*
X393700Y1536496D01*
X393700Y3793083D01*
X394462Y3796944D01*
X396646Y3800246D01*
X617931Y4021531D01*
X621233Y4023766D01*
X625144Y4024528D01*
X629005Y4023766D01*
X632307Y4021531D01*
X634492Y4018229D01*
X635304Y4014368D01*
X635304Y3759403D01*
X635457Y3754780D01*
X636066Y3750411D01*
X637032Y3746093D01*
X638352Y3741928D01*
X640029Y3737864D01*
X642061Y3733952D01*
X644398Y3730244D01*
X647090Y3726738D01*
X650240Y3723335D01*
X713435Y3660140D01*
X716838Y3656990D01*
X720293Y3654348D01*
X724052Y3651961D01*
X727964Y3649929D01*
X732028Y3648252D01*
X736193Y3646932D01*
X740511Y3645966D01*
X744880Y3645408D01*
X749554Y3645204D01*
X855167Y3645204D01*
X857351Y3644950D01*
X863955Y3643477D01*
X880618Y3641648D01*
X897331Y3641648D01*
X913993Y3643477D01*
X930351Y3647135D01*
X946200Y3652570D01*
X961339Y3659733D01*
X975614Y3668522D01*
X988872Y3678783D01*
X1000861Y3690467D01*
X1011529Y3703421D01*
X1017727Y3712870D01*
X1018997Y3714496D01*
X1209040Y3904487D01*
X1212342Y3906723D01*
X1216202Y3907485D01*
X1599895Y3907485D01*
X1617014Y3908450D01*
X1633677Y3911295D01*
X1649882Y3915968D01*
X1665478Y3922420D01*
X1680311Y3930548D01*
X1694027Y3940352D01*
X1706930Y3951884D01*
X2027174Y4272127D01*
X2030577Y4274362D01*
X2034641Y4275074D01*
X2038604Y4274159D01*
X2041906Y4271670D01*
X2043938Y4268114D01*
X2044446Y4264050D01*
X2043938Y4258513D01*
X2044395Y4242460D01*
X2046681Y4226610D01*
X2050796Y4211066D01*
X2056638Y4196130D01*
X2064054Y4181957D01*
X2073198Y4168698D01*
X2083612Y4156557D01*
X2095449Y4145737D01*
X2108454Y4136288D01*
X2122424Y4128414D01*
X2137156Y4122165D01*
X2152548Y4117644D01*
X2168347Y4114901D01*
X2184450Y4113987D01*
X2200402Y4114901D01*
X2216200Y4117644D01*
X2231593Y4122165D01*
X2246376Y4128414D01*
X2260346Y4136288D01*
X2273350Y4145737D01*
X2285136Y4156557D01*
X2295601Y4168698D01*
X2304745Y4181957D01*
X2312162Y4196130D01*
X2318004Y4211066D01*
X2322068Y4226610D01*
X2324354Y4242460D01*
X2324811Y4258513D01*
X2323439Y4274464D01*
X2320290Y4290212D01*
X2315311Y4305452D01*
X2308606Y4320032D01*
X2300325Y4333798D01*
X2290572Y4346498D01*
X2279345Y4357979D01*
X2270404Y4365345D01*
X2267712Y4368596D01*
X2266645Y4372559D01*
X2267204Y4376623D01*
X2269388Y4380179D01*
X2272741Y4382566D01*
X2276754Y4383379D01*
X2549093Y4383379D01*
X2553055Y4382566D01*
X2556408Y4380280D01*
X2558643Y4376877D01*
X2559304Y4372864D01*
X2558338Y4368952D01*
X2554986Y4361738D01*
X2552750Y4353255D01*
X2551938Y4344060D01*
X2551938Y4309922D01*
X2551125Y4306011D01*
X2550363Y4304182D01*
X2545689Y4287977D01*
X2542844Y4271314D01*
X2541879Y4254195D01*
X2541879Y3886454D01*
X2542844Y3869334D01*
X2545689Y3852672D01*
X2550363Y3836466D01*
X2556814Y3820871D01*
X2564993Y3806139D01*
X2574747Y3792372D01*
X2586177Y3779570D01*
X2716631Y3649116D01*
X2718968Y3645611D01*
X2719578Y3641547D01*
X2718562Y3637483D01*
X2716123Y3634232D01*
X2712415Y3632200D01*
X2708300Y3631844D01*
X2700375Y3632758D01*
X2684373Y3632758D01*
X2668422Y3630929D01*
X2652776Y3627272D01*
X2637688Y3621887D01*
X2623312Y3614826D01*
X2609799Y3606139D01*
X2604668Y3601872D01*
X2600706Y3599891D01*
X2596184Y3599789D01*
X2592171Y3601567D01*
X2589225Y3604920D01*
X2588006Y3609187D01*
X2588006Y3610864D01*
X2585161Y3627475D01*
X2580436Y3643680D01*
X2573985Y3659276D01*
X2565806Y3674059D01*
X2556052Y3687826D01*
X2544673Y3700627D01*
X2418029Y3827221D01*
X2405227Y3838651D01*
X2391511Y3848404D01*
X2376678Y3856583D01*
X2361082Y3863035D01*
X2344877Y3867708D01*
X2328265Y3870553D01*
X2311095Y3871468D01*
X1981352Y3871468D01*
X1964232Y3870553D01*
X1947672Y3867708D01*
X1931466Y3863035D01*
X1915820Y3856583D01*
X1901088Y3848404D01*
X1887270Y3838651D01*
X1874469Y3827221D01*
X1493977Y3446678D01*
X1482547Y3433927D01*
X1472793Y3420160D01*
X1464614Y3405378D01*
X1458163Y3389782D01*
X1453489Y3373577D01*
X1450644Y3356914D01*
X1449679Y3339795D01*
X1449679Y3308248D01*
X1450644Y3291128D01*
X1453489Y3274466D01*
X1458163Y3258261D01*
X1464614Y3242665D01*
X1472793Y3227882D01*
X1482547Y3214166D01*
X1493774Y3201568D01*
X1506372Y3190341D01*
X1520190Y3180537D01*
X1534922Y3172409D01*
X1550466Y3165906D01*
X1566672Y3161284D01*
X1583334Y3158439D01*
X1600250Y3157474D01*
X1617014Y3158439D01*
X1633677Y3161284D01*
X1649882Y3165906D01*
X1665478Y3172409D01*
X1680311Y3180537D01*
X1694027Y3190341D01*
X1706575Y3201568D01*
X1717802Y3214166D01*
X1727606Y3227882D01*
X1735734Y3242665D01*
X1742236Y3258261D01*
X1745945Y3271215D01*
X1746961Y3273552D01*
X1748536Y3275584D01*
X2040432Y3567531D01*
X2043734Y3569715D01*
X2047697Y3570478D01*
X2050084Y3570478D01*
X2053945Y3569715D01*
X2057298Y3567429D01*
X2059482Y3564026D01*
X2060143Y3560064D01*
X2059228Y3556101D01*
X2053488Y3543452D01*
X2048510Y3528212D01*
X2045309Y3512464D01*
X2043938Y3496513D01*
X2044395Y3480460D01*
X2046681Y3464610D01*
X2050796Y3449065D01*
X2056638Y3434130D01*
X2064054Y3419957D01*
X2071370Y3409289D01*
X2072538Y3407003D01*
X2088286Y3362858D01*
X2088896Y3359454D01*
X2088896Y3302254D01*
X2089404Y3292043D01*
X2089759Y3289147D01*
X2091689Y3279190D01*
X2092401Y3276396D01*
X2096719Y3264103D01*
X2101240Y3255010D01*
X2102713Y3252520D01*
X2110181Y3241852D01*
X2117090Y3234283D01*
X2599334Y2752039D01*
X2606852Y2745181D01*
X2609138Y2743403D01*
X2617520Y2737713D01*
X2620010Y2736240D01*
X2629154Y2731719D01*
X2631795Y2730601D01*
X2641396Y2727401D01*
X2644241Y2726639D01*
X2654147Y2724759D01*
X2657043Y2724404D01*
X2667254Y2723896D01*
X3138119Y2723896D01*
X3142386Y2722981D01*
X3145790Y2720390D01*
X3147822Y2716631D01*
X3148177Y2712364D01*
X3147060Y2707335D01*
X3145434Y2704846D01*
X3080359Y2631186D01*
X2844647Y2395524D01*
X2841091Y2393188D01*
X2836926Y2392578D01*
X2832811Y2393696D01*
X2829560Y2396388D01*
X2827629Y2400147D01*
X2827477Y2404414D01*
X2829306Y2414828D01*
X2830220Y2431694D01*
X2829306Y2448560D01*
X2826461Y2465171D01*
X2821736Y2481376D01*
X2815285Y2496972D01*
X2807106Y2511755D01*
X2797352Y2525522D01*
X2786126Y2538120D01*
X2773527Y2549347D01*
X2759811Y2559100D01*
X2744978Y2567279D01*
X2729382Y2573731D01*
X2713177Y2578404D01*
X2696565Y2581249D01*
X2679395Y2582164D01*
X2673146Y2582164D01*
X2656027Y2581249D01*
X2639364Y2578404D01*
X2623159Y2573731D01*
X2607614Y2567279D01*
X2592781Y2559100D01*
X2579014Y2549347D01*
X2566212Y2537917D01*
X2357577Y2328926D01*
X2346147Y2316226D01*
X2336393Y2302459D01*
X2328214Y2287676D01*
X2321763Y2272080D01*
X2317089Y2255875D01*
X2314244Y2239264D01*
X2313381Y2222093D01*
X2313381Y2012594D01*
X2312568Y2008835D01*
X2310536Y2005584D01*
X2307285Y2003348D01*
X2303526Y2002434D01*
X2299766Y2003043D01*
X2296363Y2005025D01*
X2290927Y2009952D01*
X2277211Y2019706D01*
X2262378Y2027834D01*
X2246782Y2034336D01*
X2230577Y2039010D01*
X2213914Y2041804D01*
X2196795Y2042769D01*
X2035098Y2042769D01*
X2031136Y2043531D01*
X2027834Y2045766D01*
X2020366Y2053234D01*
X2018131Y2056536D01*
X2017420Y2060448D01*
X2017420Y2298395D01*
X2016404Y2315514D01*
X2013559Y2332177D01*
X2008936Y2348382D01*
X2002434Y2363978D01*
X1994306Y2378760D01*
X1984502Y2392527D01*
X1973072Y2405278D01*
X1821129Y2557272D01*
X1808327Y2568752D01*
X1794611Y2578506D01*
X1779778Y2586634D01*
X1764182Y2593136D01*
X1747977Y2597810D01*
X1731314Y2600604D01*
X1714195Y2601569D01*
X1613154Y2601569D01*
X1596034Y2600604D01*
X1579372Y2597810D01*
X1563166Y2593136D01*
X1547622Y2586634D01*
X1532890Y2578506D01*
X1519072Y2568752D01*
X1506474Y2557475D01*
X1495247Y2544927D01*
X1485493Y2531160D01*
X1477314Y2516378D01*
X1470863Y2500782D01*
X1466189Y2484577D01*
X1463344Y2467914D01*
X1462379Y2451100D01*
X1463344Y2434234D01*
X1466189Y2417572D01*
X1470863Y2401366D01*
X1477314Y2385771D01*
X1485493Y2371039D01*
X1495247Y2357272D01*
X1506474Y2344674D01*
X1519072Y2333447D01*
X1532890Y2323642D01*
X1547622Y2315514D01*
X1563166Y2309063D01*
X1579372Y2304389D01*
X1596034Y2301544D01*
X1613154Y2300579D01*
X1647952Y2300579D01*
X1651812Y2299817D01*
X1655114Y2297633D01*
X1713382Y2239314D01*
X1715668Y2236012D01*
X1716379Y2232152D01*
X1716379Y1997862D01*
X1715668Y1993950D01*
X1713382Y1990648D01*
X1710131Y1988464D01*
X1706270Y1987702D01*
X825753Y1987702D01*
X812647Y1986838D01*
X799896Y1984197D01*
X790295Y1980946D01*
X778560Y1975357D01*
X776020Y1973884D01*
X767689Y1968195D01*
X765352Y1966366D01*
X757783Y1959559D01*
X631139Y1832864D01*
X624281Y1825294D01*
X616813Y1814626D01*
X615340Y1812137D01*
X610819Y1803044D01*
X609701Y1800352D01*
X605739Y1787956D01*
X603859Y1778000D01*
X603504Y1775104D01*
X602996Y1764893D01*
X602996Y1308303D01*
X603504Y1298092D01*
X603859Y1295196D01*
X605739Y1285240D01*
X609701Y1272844D01*
X610819Y1270152D01*
X615340Y1261059D01*
X616813Y1258570D01*
X624281Y1247902D01*
X631139Y1240332D01*
X1240434Y631037D01*
X1247952Y624230D01*
X1250289Y622401D01*
X1258620Y616712D01*
X1270254Y610717D01*
X1272895Y609650D01*
X1282496Y606399D01*
X1285341Y605637D01*
X1295247Y603758D01*
X1298143Y603402D01*
X1308354Y602894D01*
X1803146Y602894D01*
X1813407Y603402D01*
X1816252Y603758D01*
X1826158Y605637D01*
X1829054Y606399D01*
X1841296Y610717D01*
X1850389Y615238D01*
X1852879Y616712D01*
X1861261Y622401D01*
X1863547Y624230D01*
X1871116Y631037D01*
X2220976Y980948D01*
X2224278Y983132D01*
X2228189Y983894D01*
X2400046Y983894D01*
X2410307Y984402D01*
X2413152Y984758D01*
X2423058Y986637D01*
X2425954Y987399D01*
X2438196Y991717D01*
X2447290Y996238D01*
X2449779Y997712D01*
X2458161Y1003401D01*
X2460447Y1005230D01*
X2468016Y1012037D01*
X2651607Y1195578D01*
X2654909Y1197762D01*
X2658770Y1198575D01*
X2662631Y1197762D01*
X2665882Y1195578D01*
X2668168Y1192276D01*
X2668879Y1188415D01*
X2668879Y863853D01*
X2669844Y846734D01*
X2672689Y830071D01*
X2677363Y813866D01*
X2683814Y798271D01*
X2691993Y783539D01*
X2701747Y769772D01*
X2712974Y757174D01*
X2725572Y745947D01*
X2739390Y736142D01*
X2754122Y728014D01*
X2769666Y721563D01*
X2785872Y716889D01*
X2802534Y714044D01*
X2819450Y713079D01*
X2836214Y714044D01*
X2852877Y716889D01*
X2869082Y721563D01*
X2884678Y728014D01*
X2899511Y736142D01*
X2913227Y745947D01*
X2925775Y757174D01*
X2937002Y769772D01*
X2946806Y783539D01*
X2954934Y798271D01*
X2961436Y813866D01*
X2966059Y830071D01*
X2968904Y846734D01*
X2969920Y863853D01*
X2969920Y1178052D01*
X2970631Y1181912D01*
X2972866Y1185214D01*
X3065272Y1277670D01*
X3076702Y1290472D01*
X3086506Y1304239D01*
X3094634Y1318971D01*
X3101136Y1334566D01*
X3105759Y1350772D01*
X3108604Y1367434D01*
X3109620Y1384300D01*
X3108604Y1401114D01*
X3105759Y1417777D01*
X3101136Y1433982D01*
X3094634Y1449578D01*
X3086506Y1464360D01*
X3081274Y1471726D01*
X3079546Y1475790D01*
X3079699Y1480210D01*
X3081731Y1484122D01*
X3085236Y1486814D01*
X3089554Y1487779D01*
X3108452Y1487779D01*
X3112312Y1487017D01*
X3115614Y1484833D01*
X3250082Y1350314D01*
X3252368Y1347012D01*
X3253079Y1343152D01*
X3253079Y1136548D01*
X3254044Y1119428D01*
X3256889Y1102817D01*
X3261563Y1086561D01*
X3268014Y1070965D01*
X3276193Y1056233D01*
X3285947Y1042466D01*
X3297174Y1029868D01*
X3309772Y1018641D01*
X3323590Y1008887D01*
X3338322Y1000709D01*
X3353866Y994257D01*
X3370072Y989584D01*
X3386734Y986739D01*
X3403650Y985824D01*
X3420414Y986739D01*
X3437077Y989584D01*
X3453282Y994257D01*
X3468878Y1000709D01*
X3483711Y1008887D01*
X3497427Y1018641D01*
X3509975Y1029868D01*
X3521201Y1042466D01*
X3531006Y1056233D01*
X3539134Y1070965D01*
X3545636Y1086561D01*
X3550259Y1102817D01*
X3553104Y1119428D01*
X3554120Y1136548D01*
X3554120Y1409395D01*
X3553104Y1426514D01*
X3550259Y1443177D01*
X3545636Y1459382D01*
X3539134Y1474978D01*
X3531006Y1489760D01*
X3521201Y1503527D01*
X3509772Y1516278D01*
X3301695Y1724456D01*
X3299460Y1727758D01*
X3298748Y1731619D01*
X3299460Y1735531D01*
X3301695Y1738833D01*
X3304997Y1741017D01*
X3308858Y1741779D01*
X3360978Y1741779D01*
X3363823Y1741373D01*
X3370072Y1739595D01*
X3386734Y1736750D01*
X3403650Y1735785D01*
X3420414Y1736750D01*
X3437077Y1739595D01*
X3453282Y1744268D01*
X3468878Y1750720D01*
X3483711Y1758848D01*
X3497427Y1768652D01*
X3509975Y1779879D01*
X3521201Y1792478D01*
X3531006Y1806244D01*
X3538575Y1819808D01*
X3540201Y1822094D01*
X3848963Y2130806D01*
X3852265Y2133041D01*
X3856177Y2133803D01*
X3860037Y2133041D01*
X3863340Y2130806D01*
X3865524Y2127504D01*
X3866286Y2123643D01*
X3866286Y2027072D01*
X3867302Y2009952D01*
X3870147Y1993290D01*
X3874770Y1977085D01*
X3881221Y1961489D01*
X3889400Y1946706D01*
X3899154Y1932939D01*
X3910380Y1920392D01*
X3922979Y1909114D01*
X3936796Y1899361D01*
X3951478Y1891182D01*
X3967073Y1884730D01*
X3983278Y1880057D01*
X3999941Y1877263D01*
X4016857Y1876298D01*
X4033621Y1877263D01*
X4050334Y1880057D01*
X4066540Y1884730D01*
X4082084Y1891182D01*
X4096918Y1899361D01*
X4110634Y1909114D01*
X4123232Y1920392D01*
X4134459Y1932939D01*
X4144213Y1946706D01*
X4152341Y1961489D01*
X4158843Y1977085D01*
X4163517Y1993290D01*
X4166311Y2009952D01*
X4167327Y2027072D01*
X4167327Y2063953D01*
X4168038Y2067814D01*
X4170273Y2071116D01*
X4563872Y2464765D01*
X4575302Y2477566D01*
X4585106Y2491333D01*
X4593234Y2506065D01*
X4599736Y2521661D01*
X4604359Y2537917D01*
X4607204Y2554528D01*
X4608220Y2571394D01*
X4607661Y2581452D01*
X4608220Y2585618D01*
X4610608Y2589225D01*
X4770577Y2749194D01*
X4773879Y2751378D01*
X4777740Y2752140D01*
X4781600Y2751378D01*
X4784902Y2749194D01*
X4787138Y2745892D01*
X4787950Y2741980D01*
X4787950Y1579016D01*
X4787138Y1575104D01*
X4784902Y1571802D01*
X3622497Y409346D01*
X3619195Y407162D01*
X3615334Y406400D01*
X1156665Y406400D01*
X1151940Y404368D01*
G37*

%LPC*%
G36*
X4008729Y1236522D02*
G01*
X4024782Y1236522D01*
X4040784Y1238351D01*
X4056329Y1242009D01*
X4071518Y1247394D01*
X4085844Y1254455D01*
X4099407Y1263142D01*
X4111751Y1273302D01*
X4122928Y1284782D01*
X4132732Y1297482D01*
X4141012Y1311249D01*
X4147718Y1325829D01*
X4152696Y1341069D01*
X4155897Y1356817D01*
X4157218Y1372768D01*
X4156811Y1388821D01*
X4154525Y1404670D01*
X4150360Y1420215D01*
X4144568Y1435150D01*
X4137050Y1449324D01*
X4128008Y1462582D01*
X4117492Y1474673D01*
X4105757Y1485544D01*
X4092701Y1494942D01*
X4078782Y1502867D01*
X4064050Y1509115D01*
X4048607Y1513636D01*
X4032859Y1516329D01*
X4016756Y1517243D01*
X4000754Y1516329D01*
X3985006Y1513636D01*
X3969562Y1509115D01*
X3954830Y1502867D01*
X3940810Y1494942D01*
X3927856Y1485544D01*
X3916070Y1474673D01*
X3905504Y1462582D01*
X3896461Y1449324D01*
X3888994Y1435150D01*
X3883151Y1420215D01*
X3879087Y1404670D01*
X3876801Y1388821D01*
X3876344Y1372768D01*
X3877716Y1356817D01*
X3880916Y1341069D01*
X3885895Y1325829D01*
X3892600Y1311249D01*
X3900881Y1297482D01*
X3910634Y1284782D01*
X3921861Y1273302D01*
X3934206Y1263142D01*
X3947718Y1254455D01*
X3962095Y1247394D01*
X3977182Y1242009D01*
X3992829Y1238351D01*
G37*
G36*
X4458766Y1886559D02*
G01*
X4474870Y1886559D01*
X4490720Y1888388D01*
X4506366Y1891995D01*
X4521454Y1897380D01*
X4535881Y1904441D01*
X4549343Y1913128D01*
X4561738Y1923288D01*
X4572965Y1934768D01*
X4582718Y1947468D01*
X4590999Y1961235D01*
X4597704Y1975815D01*
X4602632Y1991055D01*
X4605832Y2006803D01*
X4607204Y2022754D01*
X4606747Y2038807D01*
X4604461Y2054707D01*
X4600397Y2070201D01*
X4594606Y2085136D01*
X4587138Y2099310D01*
X4578045Y2112568D01*
X4567529Y2124710D01*
X4555693Y2135530D01*
X4542790Y2144979D01*
X4528769Y2152853D01*
X4513986Y2159101D01*
X4498594Y2163622D01*
X4482795Y2166366D01*
X4466793Y2167280D01*
X4450740Y2166366D01*
X4434941Y2163622D01*
X4419549Y2159101D01*
X4404817Y2152853D01*
X4390847Y2144979D01*
X4377842Y2135530D01*
X4366107Y2124710D01*
X4355541Y2112568D01*
X4346498Y2099310D01*
X4339031Y2085136D01*
X4333240Y2070201D01*
X4329074Y2054707D01*
X4326788Y2038807D01*
X4326331Y2022754D01*
X4327702Y2006803D01*
X4330954Y1991055D01*
X4335881Y1975815D01*
X4342536Y1961235D01*
X4350816Y1947468D01*
X4360672Y1934768D01*
X4371797Y1923288D01*
X4384192Y1913128D01*
X4397756Y1904441D01*
X4412081Y1897380D01*
X4427220Y1891995D01*
X4442815Y1888388D01*
G37*

%LPD*%
G36*
X1580642Y1175359D02*
G01*
X1509725Y1119073D01*
X1535277Y1081278D01*
X1611680Y1141882D01*
G37*
G36*
X912825Y3962501D02*
G01*
X880668Y3894734D01*
X990498Y3789121D01*
X1056995Y3823868D01*
G37*
G36*
X750620Y2229713D02*
G01*
X750722Y2029714D01*
X821842Y2053539D01*
X821740Y2205939D01*
G37*
G36*
X789025Y2268118D02*
G01*
X812800Y2196998D01*
X965200Y2196998D01*
X989025Y2268118D01*
G37*
G36*
X1027633Y2229358D02*
G01*
X956411Y2205786D01*
X955954Y2053386D01*
X1027023Y2029358D01*
G37*
G36*
X3994150Y3245612D02*
G01*
X4006291Y3192272D01*
X4096308Y3192272D01*
X4108450Y3245612D01*
G37*
G36*
X4499254Y2676550D02*
G01*
X4452924Y2647442D01*
X4533747Y2566619D01*
X4562856Y2612948D01*
G37*
G36*
X2147468Y1948484D02*
G01*
X2094941Y1937207D01*
X2095042Y1847189D01*
X2147519Y1836013D01*
G37*
G36*
X2147519Y1694535D02*
G01*
X2094992Y1683308D01*
X2094992Y1593291D01*
X2147519Y1582064D01*
G37*
G36*
X2246731Y1440535D02*
G01*
X2246731Y1328064D01*
X2299208Y1339291D01*
X2299208Y1429308D01*
G37*
G36*
X3008731Y2202535D02*
G01*
X3008731Y2090064D01*
X3061208Y2101291D01*
X3061208Y2191308D01*
G37*
G36*
X2884220Y1642922D02*
G01*
X2855112Y1597812D01*
X2918815Y1534261D01*
X2963875Y1563471D01*
G37*
G36*
X2116886Y3432962D02*
G01*
X2139391Y3369970D01*
X2229408Y3369970D01*
X2251913Y3432962D01*
G37*
G36*
X990600Y3394710D02*
G01*
X990600Y3191510D01*
X1184910Y3193135D01*
X1184910Y3393135D01*
G37*
G36*
X787400Y3191510D02*
G01*
X789025Y3162300D01*
X989025Y3162300D01*
X990600Y3191510D01*
G37*
G36*
X787400Y1527810D02*
G01*
X789025Y1460500D01*
X989025Y1460500D01*
X990600Y1527810D01*
G37*
G36*
X3241598Y2737408D02*
G01*
X3116935Y2596388D01*
X3208375Y2560523D01*
X3311601Y2647391D01*
G37*
G36*
X3106623Y2864408D02*
G01*
X3106623Y2774391D01*
X3241598Y2774391D01*
X3241598Y2864408D01*
G37*
D10*
X4051302Y3296008D02*
G01*
X4051302Y3022597D01*
X3175002Y2146297D01*
X2959102Y2146297D01*
D11*
X3276600Y3009900D02*
G01*
X3276602Y4533897D01*
D10*
X2197125Y1384213D02*
G01*
X2413025Y1384213D01*
X2717825Y1689013D01*
X2717825Y2133513D01*
X3276625Y2692313D01*
X2197127Y1892211D02*
G01*
X825527Y1892211D01*
X698502Y1765185D01*
X698502Y1308036D01*
X1308127Y698411D01*
X1803427Y698411D01*
X2184427Y1079411D01*
X2400327Y1079411D01*
X2959127Y1638211D01*
D11*
X889027Y2129703D02*
G01*
X745401Y2129703D01*
X495302Y1879605D01*
X495302Y1181097D01*
X1181102Y495297D01*
X2476502Y495297D01*
X2692425Y4254413D02*
G01*
X2692425Y3886113D01*
X2946425Y3632113D01*
X2946425Y3340013D01*
X2787929Y3181771D01*
X2679725Y3181771D01*
D10*
X3276625Y2819313D02*
G01*
X3441725Y2819313D01*
X3619525Y2997113D01*
X3619525Y3619413D01*
X3886225Y3886113D01*
X4622825Y3886113D01*
X4737125Y3771813D01*
X4737125Y2857413D01*
D11*
X4339793Y3624696D02*
G01*
X4339793Y3439403D01*
X4457727Y3321469D01*
D10*
X4737102Y2857497D02*
G01*
X4737102Y2850794D01*
X4457702Y2571394D01*
D11*
X3797302Y4533897D02*
G01*
X3889806Y4441393D01*
X3889806Y4274682D01*
X1600202Y4058008D02*
G01*
X2076091Y4533897D01*
X3797302Y4533897D01*
X889025Y3293023D02*
G01*
X1184935Y3293023D01*
X1879625Y3987713D01*
X2324125Y3987713D01*
X889002Y3793489D02*
G01*
X889002Y3797297D01*
X1149700Y4057995D01*
X1600202Y4057995D01*
X1600202Y3307981D02*
G01*
X1600202Y3340097D01*
X1981116Y3721011D01*
X2311427Y3721011D01*
X2438427Y3594011D01*
X2438427Y3492411D01*
X2438402Y4254497D02*
G01*
X2438402Y4102097D01*
X2324102Y3987797D01*
X1612925Y2959013D02*
G01*
X1714525Y2959013D01*
X2197125Y2476413D01*
X2197125Y2146213D01*
D10*
X1600202Y1077897D02*
G01*
X1600202Y1092197D01*
X1295402Y1396997D01*
X1295402Y1523997D01*
X1409702Y1638297D01*
X2197102Y1638297D01*
D11*
X2959102Y1638297D02*
G01*
X3175002Y1638297D01*
X3403602Y1409697D01*
X3403602Y1136294D01*
X889025Y3293023D02*
G01*
X889025Y3162213D01*
X1155725Y2895513D01*
X1549425Y2895513D01*
X1612925Y2959013D01*
X1612902Y2451097D02*
G01*
X1714502Y2451097D01*
X1866902Y2298697D01*
X1866902Y1993897D01*
X1968502Y1892297D01*
X2197102Y1892297D01*
X2679727Y2431707D02*
G01*
X2672867Y2431707D01*
X2463827Y2222411D01*
X2463827Y1765211D01*
X2336827Y1638211D01*
X2197127Y1638211D01*
X3889806Y3624696D02*
G01*
X3889806Y3457503D01*
X4051302Y3296008D01*
X2311402Y863597D02*
G01*
X2311402Y673097D01*
X2489202Y495297D01*
X3585283Y495297D01*
X4466793Y1376806D01*
X4016811Y2026795D02*
G01*
X4016811Y2130503D01*
X4457702Y2571394D01*
X3403602Y1886308D02*
G01*
X3403602Y1898294D01*
X4051302Y2545994D01*
X2959102Y1892297D02*
G01*
X3397600Y1892297D01*
X3403602Y1886295D01*
X1612927Y1377607D02*
G01*
X2197127Y1377607D01*
X2197127Y1384211D01*
X2959102Y1384292D02*
G01*
X2819402Y1244592D01*
X2819402Y863597D01*
X889025Y1629323D02*
G01*
X889025Y1460413D01*
X1473225Y876213D01*
X1600225Y877991D01*
X889002Y2129789D02*
G01*
X889002Y2628897D01*
X1155702Y2895597D01*
X889002Y2129789D02*
G01*
X1612902Y2127608D01*
D10*
X2184425Y3492413D02*
G01*
X2184425Y3301913D01*
X2667025Y2819313D01*
X3276625Y2819313D01*
D12*
G01*
X2311400Y863600D03*
G01*
X2819400Y863600D03*
G01*
X1612900Y2959100D03*
G01*
X1612900Y2451100D03*
D13*
G01*
X1600200Y1077899D03*
G01*
X1600200Y877900D03*
D14*
G01*
X889000Y3293109D03*
D15*
G01*
X889000Y3793489D03*
D14*
G01*
X889000Y1629409D03*
D15*
G01*
X889000Y2129789D03*
D16*
G01*
X3276600Y2692400D03*
G01*
X3276600Y2819400D03*
D17*
G01*
X3276600Y2946400D03*
D18*
G01*
X1600200Y3307994D03*
G01*
X1600200Y4058005D03*
G01*
X4051300Y2545994D03*
G01*
X4051300Y3296005D03*
G01*
X4457700Y2571394D03*
G01*
X4457700Y3321405D03*
G01*
X2679700Y3181705D03*
G01*
X2679700Y2431694D03*
G01*
X3403600Y1136294D03*
G01*
X3403600Y1886305D03*
G01*
X1612900Y2127605D03*
G01*
X1612900Y1377594D03*
D12*
G01*
X4339793Y4274693D03*
G01*
X4339793Y3624706D03*
G01*
X3889806Y4274693D03*
G01*
X3889806Y3624706D03*
G01*
X4016806Y1376806D03*
G01*
X4016806Y2026793D03*
G01*
X4466793Y1376806D03*
G01*
X4466793Y2026793D03*
D19*
G01*
X2197100Y2146300D03*
D20*
G01*
X2197100Y1892300D03*
G01*
X2197100Y1638300D03*
G01*
X2197100Y1384300D03*
G01*
X2959100Y2146300D03*
G01*
X2959100Y1892300D03*
G01*
X2959100Y1638300D03*
G01*
X2959100Y1384300D03*
D21*
G01*
X2692400Y4254500D03*
D12*
G01*
X2438400Y4254500D03*
G01*
X2184400Y4254500D03*
G01*
X2692400Y3492500D03*
G01*
X2438400Y3492500D03*
G01*
X2184400Y3492500D03*
M02*
