G04 Layer: BottomSolderMaskLayer*
G04 EasyEDA v6.5.23, 2023-05-13 18:40:17*
G04 7dd84fb06793420390170bfe7a1cbe73,3fa23a13d3e040a79c425d4cbe1ed77c,10*
G04 Gerber Generator version 0.2*
G04 Scale: 100 percent, Rotated: No, Reflected: No *
G04 Dimensions in millimeters *
G04 leading zeros omitted , absolute positions ,4 integer and 5 decimal *
%FSLAX45Y45*%
%MOMM*%

%AMMACRO1*1,1,$1,$2,$3*1,1,$1,$4,$5*1,1,$1,0-$2,0-$3*1,1,$1,0-$4,0-$5*20,1,$1,$2,$3,$4,$5,0*20,1,$1,$4,$5,0-$2,0-$3,0*20,1,$1,0-$2,0-$3,0-$4,0-$5,0*20,1,$1,0-$4,0-$5,$2,$3,0*4,1,4,$2,$3,$4,$5,0-$2,0-$3,0-$4,0-$5,$2,$3,0*%
%ADD10C,1.9016*%
%ADD11C,1.4016*%
%ADD12MACRO1,0.1016X-1.016X-1.016X-1.016X1.016*%
%ADD13C,2.1336*%
%ADD14O,1.7015968X1.0015981999999999*%
%ADD15MACRO1,0.1016X0.8X0.45X0.8X-0.45*%
%ADD16C,1.6256*%
%ADD17MACRO1,0.1016X0.75X0.75X0.75X-0.75*%
%ADD18C,1.6016*%
%ADD19MACRO1,0.1016X0.9X0.9X0.9X-0.9*%

%LPD*%
D10*
G01*
X2311400Y863600D03*
G01*
X2819400Y863600D03*
G01*
X1612900Y2959100D03*
G01*
X1612900Y2451100D03*
D11*
G01*
X1600200Y1077899D03*
G01*
X1600200Y877900D03*
D12*
G01*
X889000Y3293109D03*
D13*
G01*
X889000Y3793489D03*
D12*
G01*
X889000Y1629409D03*
D13*
G01*
X889000Y2129789D03*
D14*
G01*
X3276600Y2692400D03*
G01*
X3276600Y2819400D03*
D15*
G01*
X3276599Y2946398D03*
D16*
G01*
X1600200Y3307994D03*
G01*
X1600200Y4058005D03*
G01*
X4051300Y2545994D03*
G01*
X4051300Y3296005D03*
G01*
X4457700Y2571394D03*
G01*
X4457700Y3321405D03*
G01*
X2679700Y3181705D03*
G01*
X2679700Y2431694D03*
G01*
X3403600Y1136294D03*
G01*
X3403600Y1886305D03*
G01*
X1612900Y2127605D03*
G01*
X1612900Y1377594D03*
D10*
G01*
X4339793Y4274693D03*
G01*
X4339793Y3624706D03*
G01*
X3889806Y4274693D03*
G01*
X3889806Y3624706D03*
G01*
X4016806Y1376806D03*
G01*
X4016806Y2026793D03*
G01*
X4466793Y1376806D03*
G01*
X4466793Y2026793D03*
D17*
G01*
X2197100Y2146300D03*
D18*
G01*
X2197100Y1892300D03*
G01*
X2197100Y1638300D03*
G01*
X2197100Y1384300D03*
G01*
X2959100Y2146300D03*
G01*
X2959100Y1892300D03*
G01*
X2959100Y1638300D03*
G01*
X2959100Y1384300D03*
D19*
G01*
X2692399Y4254499D03*
D10*
G01*
X2438400Y4254500D03*
G01*
X2184400Y4254500D03*
G01*
X2692400Y3492500D03*
G01*
X2438400Y3492500D03*
G01*
X2184400Y3492500D03*
M02*
